# xmcd
#
# Track frame offsets:
# 150
# 15035
# 28190
# 40270
# 51077
# 72815
# 83887
# 95570
# 110220
# 128040
# 146492
# 159112
# 174830
# 188657
# 202070
# 218522
# 235170
#
# Disc length: 3324 seconds
#
#
# Revision: 0
# Processed by: cddbd v1.5.2PL0 Copyright (c) Steve Scherf et al.
# Submitted via: FreeRIP 2.90 
#
DISCID=da0cfa11
DTITLE=Barretão 2008 - Barretão 2008
DYEAR=2008
DGENRE=Rodeio
TTITLE0=Parece Castigo - João Bosco and Vinicius
TTITLE1=Som Na Caixa - Chico Amado and Xodó
TTITLE2=Barraca De Lona - Julio and César
TTITLE3=Chocolate - Luan Santana
TTITLE4=Eu E A Lua - Janio and Junior
TTITLE5=Fim de Semana Taí - Garotos do Brasil
TTITLE6=Sobra Mais Mulher Pra Mim - Teodoro and Sampaio
TTITLE7=Bailão Arrojado - Henrique and Ruan
TTITLE8=Apaixonado Demais - Marciano
TTITLE9=Antes Que Voce Vá - Fabricio and Fabian
TTITLE10=Meu Som É Doido - Fylé
TTITLE11=Vem Beber Pinga - Garapava
TTITLE12=Pudim de Pinga - Silverado Country Show
TTITLE13=Circuito de Rodeio - Roberto and Meirinho
TTITLE14=Volta Pra Mim - Carlito and Rodrigo
TTITLE15=Jeito Manhoso - Luiz Valdo Show
TTITLE16=Derrubadão - Trio Bate o Pé
EXTD=Post by Tosh2005
EXTT0=
EXTT1=
EXTT2=
EXTT3=
EXTT4=
EXTT5=
EXTT6=
EXTT7=
EXTT8=
EXTT9=
EXTT10=
EXTT11=
EXTT12=
EXTT13=
EXTT14=
EXTT15=
EXTT16=
PLAYORDER=
